<?xml version="1.0" encoding="utf-8"?>
<!-- Generator: Adobe Illustrator 20.1.0, SVG Export Plug-In . SVG Version: 6.00 Build 0)  -->
<svg version="1.1" id="Layer_1" xmlns="http://www.w3.org/2000/svg" xmlns:xlink="http://www.w3.org/1999/xlink" x="0px" y="0px"
	 viewBox="0 0 372.886 99.094" enable-background="new 0 0 372.886 99.094" xml:space="preserve">
<g id="XMLID_3_">
	<path id="XMLID_16_" fill="#E52420" d="M24.582,90.46l-1.748,6.882H2.001L23.75,9.758h23.084l-7.659,31.029
		c4.028-3.253,8.812-5.254,15.57-5.254c14.498,0,21.022,13.388,16.138,32.907c-3.909,15.639-11.574,30.654-30.718,30.654
		C30.875,99.094,26.167,93.964,24.582,90.46z M48.317,67.063c2.152-8.634,1.112-13.888-4.659-13.888
		c-3.379,0-6.316,1.751-8.611,4.379l-4.884,19.52c1.075,2.752,3.354,4.379,6.45,4.379C42.526,81.452,45.937,76.948,48.317,67.063z"
		/>
	<path id="XMLID_14_" fill="#E52420" d="M95.464,97.342H72.379L95.095,6.004h23.084L95.464,97.342z"/>
	<path id="XMLID_11_" fill="#E52420" d="M174.197,68.439c-4.725,19.269-17.064,30.654-38.037,30.654
		c-19.707,0-29.688-12.261-24.584-32.907c4.867-19.269,18.612-30.654,38.178-30.654C168.334,35.533,179.442,47.794,174.197,68.439z
		 M134.266,67.813c-2.047,9.135-0.391,13.638,4.958,13.638c5.771,0,9.913-4.88,12.284-14.639c2.187-9.135,0.54-13.763-4.809-13.763
		C140.928,53.05,136.778,58.054,134.266,67.813z"/>
	<path id="XMLID_9_" fill="#E52420" d="M180.67,66.437c5.077-20.269,21.023-30.904,40.166-30.904c5.771,0,11.191,1.001,15.15,2.752
		l-4.111,16.516c-2.851-1.502-5.631-2.003-9.573-2.003c-8.305,0-16.229,4.63-18.61,14.514c-2.178,9.01,2.39,14.139,10.694,14.139
		c4.223,0,8.225-0.876,12.298-2.752l-4.48,17.767c-4.627,1.751-9.615,2.627-15.386,2.627
		C189.225,99.094,175.215,88.083,180.67,66.437z"/>
	<path id="XMLID_7_" fill="#E52420" d="M252.338,9.758h23.084L263.275,58.68h5.067l16.135-21.396h25.76l-25.131,31.28l9.811,28.778
		h-24.211l-6.694-21.02h-5.067l-5.271,21.02h-23.084L252.338,9.758z"/>
	<path id="XMLID_4_" fill="#E52420" d="M303.852,66.187c4.515-18.268,14.53-30.654,29.873-30.654c7.461,0,13.171,2.877,16.314,8.258
		l1.721-6.506h20.833l-14.898,60.058h-20.832l1.537-5.88c-3.808,4.129-9.402,7.632-17.706,7.632
		C303.099,99.094,299.574,83.078,303.852,66.187z M339.547,77.073l4.884-19.52c-0.942-2.627-3.353-4.379-6.309-4.379
		c-5.913,0-9.465,4.504-11.836,14.264c-2.152,8.632-0.839,14.013,4.65,14.013C334.314,81.452,337.393,79.7,339.547,77.073z"/>
</g>
<g id="XMLID_1_">
	<path id="XMLID_30_" fill="#FFFFFF" d="M22.581,84.456l-1.748,6.882H0L21.749,3.754h23.084l-7.659,31.029
		c4.028-3.253,8.812-5.254,15.57-5.254c14.498,0,21.022,13.388,16.138,32.907C64.973,78.075,57.308,93.09,38.164,93.09
		C28.874,93.09,24.165,87.96,22.581,84.456z M46.316,61.059c2.152-8.634,1.112-13.888-4.659-13.888
		c-3.379,0-6.316,1.751-8.611,4.379l-4.884,19.52c1.075,2.752,3.354,4.379,6.45,4.379C40.524,75.448,43.935,70.944,46.316,61.059z"
		/>
	<path id="XMLID_28_" fill="#FFFFFF" d="M93.463,91.338H70.378L93.093,0h23.084L93.463,91.338z"/>
	<path id="XMLID_25_" fill="#FFFFFF" d="M172.196,62.436c-4.725,19.269-17.064,30.654-38.037,30.654
		c-19.707,0-29.688-12.261-24.584-32.907c4.867-19.269,18.612-30.654,38.178-30.654C166.333,29.529,177.441,41.79,172.196,62.436z
		 M132.264,61.81c-2.047,9.135-0.391,13.638,4.958,13.638c5.771,0,9.913-4.88,12.284-14.639c2.187-9.135,0.54-13.763-4.809-13.763
		C138.927,47.046,134.777,52.05,132.264,61.81z"/>
	<path id="XMLID_23_" fill="#FFFFFF" d="M178.669,60.433c5.077-20.269,21.023-30.904,40.166-30.904
		c5.771,0,11.191,1.001,15.15,2.752l-4.111,16.516c-2.851-1.502-5.631-2.003-9.573-2.003c-8.305,0-16.229,4.63-18.61,14.514
		c-2.178,9.01,2.39,14.139,10.694,14.139c4.223,0,8.225-0.876,12.298-2.752l-4.48,17.767c-4.627,1.751-9.615,2.627-15.386,2.627
		C187.224,93.09,173.214,82.079,178.669,60.433z"/>
	<path id="XMLID_21_" fill="#FFFFFF" d="M250.337,3.754h23.084l-12.148,48.922h5.067l16.135-21.396h25.76l-25.131,31.28
		l9.811,28.778h-24.211l-6.694-21.02h-5.067l-5.271,21.02h-23.084L250.337,3.754z"/>
	<path id="XMLID_2_" fill="#FFFFFF" d="M301.85,60.183c4.515-18.268,14.53-30.654,29.873-30.654c7.461,0,13.171,2.877,16.314,8.258
		l1.721-6.506h20.833l-14.898,60.058h-20.832l1.537-5.88c-3.808,4.129-9.402,7.632-17.706,7.632
		C301.097,93.09,297.572,77.074,301.85,60.183z M337.545,71.069l4.884-19.52c-0.942-2.627-3.353-4.379-6.309-4.379
		c-5.913,0-9.465,4.504-11.836,14.264c-2.152,8.632-0.839,14.013,4.65,14.013C332.313,75.448,335.391,73.696,337.545,71.069z"/>
</g>
</svg>
