<?xml version="1.0" encoding="utf-8"?>
<!-- Generator: Adobe Illustrator 20.1.0, SVG Export Plug-In . SVG Version: 6.00 Build 0)  -->
<svg version="1.1" id="Layer_1" xmlns="http://www.w3.org/2000/svg" xmlns:xlink="http://www.w3.org/1999/xlink" x="0px" y="0px"
	 viewBox="0 0 376.096 99.094" enable-background="new 0 0 376.096 99.094" xml:space="preserve">
<g id="XMLID_34_">
	<path id="XMLID_47_" fill="#FFFFFF" d="M24.582,89.335l-1.748,6.882H2.002L23.751,8.633h23.084l-7.659,31.029
		c4.028-3.253,8.812-5.254,15.57-5.254c14.498,0,21.022,13.388,16.138,32.907C66.975,82.954,59.31,97.969,40.166,97.969
		C30.876,97.969,26.167,92.839,24.582,89.335z M48.318,65.938c2.152-8.634,1.112-13.888-4.659-13.888
		c-3.379,0-6.316,1.751-8.611,4.379l-4.884,19.52c1.075,2.752,3.354,4.379,6.45,4.379C42.526,80.327,45.937,75.823,48.318,65.938z"
		/>
	<path id="XMLID_45_" fill="#FFFFFF" d="M95.465,96.217H72.38L95.095,4.879h23.084L95.465,96.217z"/>
	<path id="XMLID_42_" fill="#FFFFFF" d="M174.198,67.314c-4.725,19.269-17.064,30.654-38.037,30.654
		c-19.707,0-29.688-12.261-24.584-32.907c4.867-19.269,18.612-30.654,38.178-30.654C168.335,34.408,179.442,46.669,174.198,67.314z
		 M134.266,66.689c-2.047,9.135-0.391,13.638,4.958,13.638c5.771,0,9.913-4.88,12.284-14.639c2.187-9.135,0.54-13.763-4.809-13.763
		C140.929,51.925,136.779,56.929,134.266,66.689z"/>
	<path id="XMLID_40_" fill="#FFFFFF" d="M180.671,65.312c5.077-20.269,21.023-30.904,40.166-30.904
		c5.771,0,11.191,1.001,15.15,2.752l-4.111,16.516c-2.851-1.502-5.631-2.003-9.573-2.003c-8.305,0-16.229,4.63-18.61,14.514
		c-2.178,9.01,2.39,14.139,10.694,14.139c4.223,0,8.225-0.876,12.298-2.752l-4.48,17.767c-4.627,1.751-9.615,2.627-15.386,2.627
		C189.226,97.969,175.216,86.958,180.671,65.312z"/>
	<path id="XMLID_38_" fill="#FFFFFF" d="M252.339,8.633h23.084l-12.148,48.922h5.067l16.135-21.396h25.76l-25.131,31.28
		l9.811,28.778h-24.211l-6.694-21.02h-5.067l-5.271,21.02H230.59L252.339,8.633z"/>
	<path id="XMLID_35_" fill="#FFFFFF" d="M303.852,65.062c4.515-18.268,14.53-30.654,29.873-30.654
		c7.461,0,13.171,2.877,16.314,8.258l1.721-6.506h20.833l-14.898,60.058h-20.832l1.537-5.88c-3.808,4.129-9.402,7.632-17.706,7.632
		C303.099,97.969,299.574,81.953,303.852,65.062z M339.547,75.948l4.884-19.52c-0.942-2.627-3.353-4.379-6.309-4.379
		c-5.913,0-9.465,4.504-11.836,14.264c-2.152,8.632-0.839,14.013,4.65,14.013C334.315,80.327,337.393,78.575,339.547,75.948z"/>
</g>
</svg>
