<?xml version="1.0" encoding="utf-8"?>
<!-- Generator: Adobe Illustrator 20.1.0, SVG Export Plug-In . SVG Version: 6.00 Build 0)  -->
<svg version="1.1" id="Layer_1" xmlns="http://www.w3.org/2000/svg" xmlns:xlink="http://www.w3.org/1999/xlink" x="0px" y="0px"
	 viewBox="0 0 376.1 99.1" style="enable-background:new 0 0 376.1 99.1;" xml:space="preserve">
<style type="text/css">
	.st0{fill:#FFFFFF;}
	.st1{fill:#0000FF;}
	.st2{fill:#294A9A;}
</style>
<g id="XMLID_34_">
	<g id="XMLID_1_">
		<g>
			<polygon class="st0" points="380.1,36.8 365.2,96.8 344.4,96.8 345.1,93.8 356.2,93.8 370.3,36.8 			"/>
			<path class="st1" d="M371.1,33.8l-0.8,3h-11.1l-1.7,6.5c-1.8-3.2-4.6-5.4-8-6.8l0.7-2.7H371.1z"/>
			<path class="st0" d="M370.3,36.8l-14.1,57h-11l0.8-2.9c-0.9,1-2,2-3.1,2.9h-7.4l1.5-5.9c-3.8,4.1-9.4,7.6-17.7,7.6
				c-0.7,0-1.4,0-2.1-0.1c-7.8-5.5-8.9-17.4-5.7-29.8c4.5-18.3,14.5-30.7,29.9-30.7c0.8,0,1.7,0,2.5,0.1c2,1.3,3.6,3,4.8,5.2l1-3.8
				c3.4,1.4,6.2,3.6,8,6.8l1.7-6.5H370.3z M347,76.6l4.9-19.5c-0.9-2.6-3.4-4.4-6.3-4.4c-1.1,0-2.1,0.2-3.1,0.5
				c-1.1-2.1-3.3-3.5-5.9-3.5c-5.9,0-9.5,4.5-11.8,14.3c-2.1,8.6-0.8,14,4.6,14c1.3,0,2.6-0.3,3.8-0.8c0.7,2.4,2.4,3.8,5.2,3.8
				C341.8,80.9,344.9,79.2,347,76.6z"/>
			<path class="st1" d="M351.9,57L347,76.6c-2.1,2.6-5.2,4.4-8.6,4.4c-2.8,0-4.5-1.3-5.2-3.8c1.8-0.8,3.5-2,4.8-3.6l4.9-19.5
				c-0.1-0.3-0.2-0.6-0.4-0.9c1-0.3,2-0.5,3.1-0.5C348.6,52.7,351,54.4,351.9,57z"/>
			<path class="st0" d="M349.5,36.5l-1,3.8c-1.2-2.1-2.9-3.8-4.8-5.2C345.8,35.3,347.8,35.8,349.5,36.5z"/>
			<path class="st2" d="M345.9,91l-0.8,2.9h-2.4C343.9,92.9,345,92,345.9,91z"/>
			<path class="st1" d="M332.2,32c4.5,0,8.4,1.1,11.5,3.1c-0.8-0.1-1.6-0.1-2.5-0.1c-15.3,0-25.4,12.4-29.9,30.7
				c-3.1,12.4-2.1,24.4,5.7,29.8c-15.7-1.3-18.8-16.6-14.7-32.8c1.1-4.3,2.4-8.3,4.1-11.9l11.3-14h-0.3
				C321.6,33.7,326.6,32,332.2,32z"/>
			<path class="st0" d="M335.4,93.8h7.4c-3.6,2.8-8.3,4.8-14.6,4.8c-4.7,0-8.3-1.1-11.1-3.1c0.7,0,1.4,0.1,2.1,0.1
				c8.3,0,13.9-3.5,17.7-7.6L335.4,93.8z"/>
			<path class="st0" d="M336.6,49.7c2.6,0,4.8,1.4,5.9,3.5c-4.1,1.4-6.8,5.9-8.7,13.8c-1.1,4.3-1.3,7.8-0.5,10.2
				c-1.2,0.5-2.5,0.8-3.8,0.8c-5.5,0-6.8-5.4-4.6-14C327.1,54.2,330.7,49.7,336.6,49.7z"/>
			<path class="st0" d="M317.7,36.8l-11.3,14c2.8-6,6.5-10.8,11-14H317.7z"/>
			<path class="st0" d="M306.3,36.8h11.1c-4.5,3.2-8.2,8.1-11,14l-13.9,17.3l9.8,28.8h-24.2l-1-3h16.2l-9.8-28.8L306.3,36.8z"/>
			<polygon class="st1" points="308.7,33.8 306.3,36.8 292,36.8 275.8,58.2 270.8,58.2 273.8,45.9 283,33.8 			"/>
			<polygon class="st0" points="306.3,36.8 283.6,65.1 293.4,93.8 277.2,93.8 271.5,75.8 266.5,75.8 265.1,81.1 262.5,72.8 
				257.4,72.8 252.2,93.8 238.8,93.8 259.8,9.3 273.2,9.3 261.8,55.2 266.8,55.2 273.8,45.9 270.8,58.2 275.8,58.2 292,36.8 			"/>
			<polygon class="st0" points="282.9,9.3 273.8,45.9 266.8,55.2 261.8,55.2 273.2,9.3 			"/>
			<polygon class="st1" points="271.5,75.8 277.2,93.8 269.2,93.8 265.1,81.1 266.5,75.8 			"/>
			<polygon class="st0" points="262.5,72.8 265.1,81.1 261.2,96.8 238.1,96.8 238.8,93.8 252.2,93.8 257.4,72.8 			"/>
			<path class="st1" d="M250.8,6.3h23.1l-0.8,3h-13.3l-21,84.6h-8.6l3.9-15.6c-0.4,0.2-0.9,0.4-1.4,0.6l6.1-24.7
				c0.1,0.1,0.3,0.1,0.4,0.2l4.1-16.5c-0.1-0.1-0.3-0.1-0.4-0.2L250.8,6.3z"/>
			<path class="st0" d="M243.5,37.8l-4.1,16.5c-0.1-0.1-0.3-0.1-0.4-0.2l4.1-16.5C243.2,37.7,243.4,37.7,243.5,37.8z"/>
			<path class="st0" d="M243.1,37.6L239,54.1c-2.6-1.3-5.1-1.7-8.6-1.8l0-1l4-15.9C237.6,35.8,240.6,36.6,243.1,37.6z"/>
			<path class="st0" d="M234.3,35.4l-4,15.9c-2.8-1.5-5.6-2-9.6-2c-8.3,0-16.2,4.6-18.6,14.5c-2.2,9,2.4,14.1,10.7,14.1
				c0.1,0,0.2,0,0.3,0c1.9,2,4.9,3,8.7,3c0.6,0,1.2,0,1.9-0.1l-3,12.1c-4.6,1.8-9.6,2.6-15.4,2.6c-2.3,0-4.5-0.2-6.6-0.5
				c-9.1-4.8-14.2-14.6-10.5-29.1c5.1-20.3,21-30.9,40.2-30.9C230.4,35,232.4,35.2,234.3,35.4z"/>
			<path class="st0" d="M234.2,78.2l-3.9,15.6h-1.2l3.7-15C233.3,78.6,233.7,78.4,234.2,78.2z"/>
			<path class="st0" d="M232.8,78.8l-3.7,15h1.2l-0.5,2.1c-4.6,1.8-9.6,2.6-15.4,2.6c-5.8,0-11.2-1.2-15.6-3.5
				c2.1,0.4,4.3,0.5,6.6,0.5c5.8,0,10.8-0.9,15.4-2.6l3-12.1C226.8,80.7,229.8,80,232.8,78.8z"/>
			<path class="st1" d="M219.3,32c5.8,0,11.2,1,15.1,2.8l-0.2,0.6c-1.9-0.2-3.9-0.4-6-0.4c-19.1,0-35.1,10.6-40.2,30.9
				c-3.7,14.5,1.4,24.3,10.5,29.1c-10.1-1.8-18.1-7.7-20.2-17.7c1.3-2.9,2.4-6,3.2-9.4c1.4-5.4,1.6-10.2,0.9-14.4
				C189.7,39.4,203.4,32,219.3,32z"/>
			<path class="st0" d="M220.8,49.3c3.9,0,6.7,0.5,9.6,2l0,1c-0.2,0-0.4,0-0.6,0c-8.3,0-16.2,4.6-18.6,14.5c-1.2,5-0.4,8.7,2,11.1
				c-0.1,0-0.2,0-0.3,0c-8.3,0-12.9-5.1-10.7-14.1C204.6,53.9,212.5,49.3,220.8,49.3z"/>
			<path class="st2" d="M225.2,75.2l-1.4,5.7c-0.6,0-1.2,0.1-1.9,0.1c-3.7,0-6.7-1-8.7-3C217.3,77.9,221.2,77,225.2,75.2z"/>
			<path class="st0" d="M182.6,53.5c0.7,4.2,0.5,9-0.9,14.4c-0.8,3.4-1.9,6.5-3.2,9.4c-0.9-4.1-0.7-8.9,0.7-14.4
				C180,59.5,181.2,56.4,182.6,53.5z"/>
			<path class="st0" d="M182.6,53.5c-1.4,2.9-2.6,6-3.4,9.4c-1.4,5.5-1.5,10.3-0.7,14.4c-6.1,13.5-17.5,21.3-34.8,21.3
				c-6.2,0-11.4-1.2-15.5-3.5c2,0.3,4.2,0.5,6.5,0.5c21,0,33.3-11.4,38-30.6c3.6-14.2-0.5-24.4-9.5-29.5
				C173.7,37.2,180.9,43.5,182.6,53.5z"/>
			<path class="st0" d="M163.2,35.5c9,5,13.1,15.2,9.5,29.5c-4.7,19.3-17.1,30.6-38,30.6c-2.3,0-4.5-0.2-6.5-0.5
				c-9-5-12.6-15.2-9.1-29.4c4.9-19.3,18.6-30.7,38.2-30.7C159.3,35,161.3,35.2,163.2,35.5L163.2,35.5z M159,66.3
				c2.2-9.1,0.5-13.8-4.8-13.8c-1.3,0-2.5,0.3-3.7,0.8c-0.8-2.5-2.5-3.8-5.3-3.8c-5.8,0-9.9,5-12.4,14.8c-2,9.1-0.4,13.6,5,13.6
				c1.3,0,2.5-0.2,3.6-0.7c0.8,2.5,2.6,3.7,5.4,3.7C152.5,80.9,156.6,76.1,159,66.3z"/>
			<path class="st1" d="M154.2,52.5c5.4,0,7,4.6,4.8,13.8c-2.4,9.8-6.5,14.6-12.3,14.6c-2.8,0-4.6-1.2-5.4-3.7
				c3.9-1.7,6.8-6.3,8.6-13.9c1-4.4,1.2-7.7,0.5-10C151.7,52.8,152.9,52.5,154.2,52.5z"/>
			<path class="st1" d="M163.2,35.5c-1.9-0.3-3.8-0.5-5.9-0.5c-19.6,0-33.3,11.4-38.2,30.7c-3.5,14.2,0.1,24.4,9.1,29.4
				c-12-1.9-19.1-9.6-19.4-21.6l5.4-21.6c6.7-12.7,18.5-19.9,34.1-19.9C154,32,159.1,33.2,163.2,35.5z"/>
			<path class="st0" d="M150.5,53.3c-3.9,1.7-6.8,6.4-8.8,14c-1,4.3-1.1,7.6-0.4,9.9c-1.1,0.5-2.4,0.7-3.6,0.7c-5.4,0-7-4.5-5-13.6
				c2.5-9.8,6.7-14.8,12.4-14.8C148,49.5,149.8,50.8,150.5,53.3z"/>
			<path class="st1" d="M116.7,2.5l-0.8,3h-13.3l-22,88.3h-9.8L74.3,80c1.7-3.8,3-7.9,4.1-12.1c0.9-3.8,1.5-7.4,1.6-10.7L93.6,2.5
				H116.7z"/>
			<polygon class="st0" points="115.9,5.5 94,93.8 80.6,93.8 102.6,5.5 			"/>
			<path class="st0" d="M114.2,51.9l-5.4,21.6c-0.1-3.3,0.3-6.9,1.3-10.8C111.1,58.8,112.4,55.2,114.2,51.9z"/>
			<path class="st0" d="M94,93.8l22-88.3h9.8l-11.5,46.4c-1.7,3.2-3.1,6.8-4.1,10.8c-1,3.9-1.4,7.6-1.3,10.8L103,96.8H79.9l0.8-3H94
				z"/>
			<path class="st0" d="M63.5,35.1c10.9,0.6,16.9,9.1,16.5,22.2L74.3,80c-4.7,10.5-12.6,18.6-26.6,18.6c-4.7,0-8.2-1.3-10.8-3.1
				c0.6,0.1,1.1,0.1,1.8,0.1c19.2,0,26.8-15,30.7-30.6C72.9,50.9,70.5,40.1,63.5,35.1z"/>
			<path class="st0" d="M74.3,80L80,57.3c-0.1,3.3-0.6,6.9-1.6,10.7C77.3,72.1,76,76.2,74.3,80z"/>
			<path class="st0" d="M63.5,35.1c7,5,9.4,15.8,5.9,29.9c-3.9,15.6-11.6,30.6-30.7,30.6c-0.6,0-1.2,0-1.8-0.1
				c-2.5-1.7-4-3.8-4.8-5.6L31,94.2c-4.4-1.8-6.9-4.9-7.9-7.2l-1.8,6.9H10.2l21-84.6h13.3l-6.9,28c3.1-2.5,6.5-4.2,11-4.9l-2,7.9
				c4-3.3,8.8-5.3,15.6-5.3C62.7,35,63.1,35,63.5,35.1z M55.8,66.6c2.2-8.6,1.1-13.9-4.7-13.9c-1.3,0-2.5,0.3-3.7,0.7
				c-0.7-2.4-2.4-3.7-5.3-3.7c-3.4,0-6.3,1.8-8.6,4.4l-4.9,19.5c1.1,2.8,3.3,4.4,6.5,4.4c1.1,0,2.1-0.1,3-0.4c1.2,2.2,3.3,3.4,6,3.4
				C50,80.9,53.4,76.4,55.8,66.6z"/>
			<path class="st2" d="M63.5,35.1c-0.4,0-0.8,0-1.3,0c-6.8,0-11.5,2-15.6,5.3l2-7.9c1.4-0.2,3-0.3,4.6-0.3
				C57.3,32,60.8,33.1,63.5,35.1z"/>
			<path class="st1" d="M51.2,52.7c5.8,0,6.8,5.2,4.7,13.9c-2.4,9.9-5.8,14.4-11.7,14.4c-2.7,0-4.8-1.3-6-3.4
				c4.1-1.4,6.8-5.8,8.7-13.9c1.1-4.3,1.4-7.8,0.6-10.2C48.6,52.9,49.9,52.7,51.2,52.7z"/>
			<path class="st0" d="M54.3,9.3l-5.7,23.1c-4.4,0.7-7.9,2.5-11,4.9l6.9-28H54.3z"/>
			<path class="st0" d="M47.5,53.4c-1.8,0.8-3.5,2-4.9,3.7l-4.9,19.5c0.1,0.3,0.3,0.6,0.4,0.9c-0.9,0.3-1.9,0.4-3,0.4
				c-3.1,0-5.4-1.6-6.5-4.4L33.5,54c2.3-2.6,5.2-4.4,8.6-4.4C45.1,49.7,46.8,51,47.5,53.4z"/>
			<polygon class="st1" points="45.3,6.3 44.6,9.3 31.2,9.3 10.2,93.8 0.5,93.8 22.2,6.3 			"/>
			<path class="st2" d="M32.1,90c0.8,1.7,2.3,3.9,4.8,5.6c-2.3-0.2-4.2-0.6-5.9-1.3L32.1,90z"/>
			<path class="st0" d="M31,94.2l-0.7,2.6H9.5l0.7-3h11.1l1.8-6.9C24.1,89.3,26.6,92.4,31,94.2z"/>
		</g>
		<g>
		</g>
	</g>
</g>
</svg>
